<?xml version="1.0" encoding="UTF-8" standalone="no"?>
<svg
   xmlns:dc="http://purl.org/dc/elements/1.1/"
   xmlns:cc="http://creativecommons.org/ns#"
   xmlns:rdf="http://www.w3.org/1999/02/22-rdf-syntax-ns#"
   xmlns:svg="http://www.w3.org/2000/svg"
   xmlns="http://www.w3.org/2000/svg"
   xmlns:sodipodi="http://sodipodi.sourceforge.net/DTD/sodipodi-0.dtd"
   xmlns:inkscape="http://www.inkscape.org/namespaces/inkscape"
   viewBox="0 0 100 100"
   width="100"
   height="100"
   version="1.1"
   id="svg216"
   sodipodi:docname="flower.svg"
   inkscape:version="0.92.3 (unknown)"><metadata
   id="metadata222">
  <rdf:RDF>
    <cc:Work
       rdf:about="">
      <dc:format>image/svg+xml</dc:format>
      <dc:type
         rdf:resource="http://purl.org/dc/dcmitype/StillImage" />
      <dc:title></dc:title>
    </cc:Work>
  </rdf:RDF>
</metadata>
<defs
   id="defs220" />
<sodipodi:namedview
   pagecolor="#ffffff"
   bordercolor="#666666"
   borderopacity="1"
   objecttolerance="10"
   gridtolerance="10"
   guidetolerance="10"
   inkscape:pageopacity="0"
   inkscape:pageshadow="2"
   inkscape:window-width="1920"
   inkscape:window-height="1020"
   id="namedview218"
   showgrid="false"
   inkscape:zoom="5.6568542"
   inkscape:cx="28.21377"
   inkscape:cy="45.616498"
   inkscape:window-x="0"
   inkscape:window-y="32"
   inkscape:window-maximized="1"
   inkscape:current-layer="svg216" />
<g
   id="g2373"
   transform="matrix(1.1278445,0,0,1.1278445,-8.490559,-5.638761)">
  <g
     style="fill:#88b41b;fill-opacity:1"
     id="g166"
     transform="matrix(-0.32938618,0.35657757,-0.35657757,-0.32938618,62.047221,37.901028)"
     y="90"
     x="58">
    <path
       style="fill:#88b41b;fill-opacity:1"
       inkscape:connector-curvature="0"
       id="path162"
       d="m 32,2 c 0,0 -16,46 0,62 0,0 16,-16 0,-62 z" />
    <circle
       style="fill:#88b41b;fill-opacity:1"
       id="circle164"
       r="10"
       cy="80"
       cx="32" />
  </g>
  <g
     style="fill:#ffffff"
     transform="matrix(0.19140395,0.00250112,-0.00250112,0.19140395,-28.450924,-4.8708992)"
     width="8"
     version="1.1"
     viewBox="0 0 30 30"
     x="32"
     y="80"
     id="g182">
    <path
       style="fill:#ffffff"
       d="m 277,159 c 1.7,-8.8 1,-15 1,-25 -6.3,-2.6 -13,-4.7 -18,-6 -2.6,-0.64 1.5,-2.6 3.4,-3.7 12,2.2 5.8,2 19,5.1 0.26,9.7 0.24,17 0.48,28 0.15,-9.4 0.29,-19 0.44,-28 -6.6,-1.9 -13,-3.8 -20,-5.6 l -6.2,4.4 v 27 c 6.6,1.7 19,6 20,3.8 z"
       id="path178"
       inkscape:connector-curvature="0" />
    <path
       d="m 281,139 c -0.34,-2.1 -0.22,19 -0.016,14 0.087,-2.6 0.1,-11 0.015,-14 z"
       id="path180"
       inkscape:connector-curvature="0"
       style="fill:#ffffff;stroke-width:0.64999998" />
  </g>
</g>

{this._onPressButton} /&gt;
  
{this._onPressButton} /&gt;
  {0} onPressIn={_onHeartButton} /&gt;
<g
   id="g2365"
   transform="matrix(1.1278445,0,0,1.1278445,-8.490559,-5.638761)">
  <g
     style="fill:#48b845;fill-opacity:1"
     id="g160"
     transform="matrix(-0.08053692,0.47870307,-0.47870307,-0.08053692,54.084044,33.993017)"
     y="90"
     x="58">
    <path
       style="fill:#48b845;fill-opacity:1"
       inkscape:connector-curvature="0"
       id="path156"
       d="m 32,2 c 0,0 -16,46 0,62 0,0 16,-16 0,-62 z" />
    <circle
       style="fill:#48b845;fill-opacity:1"
       id="circle158"
       r="10"
       cy="80"
       cx="32" />
  </g>
  <path
     sodipodi:nodetypes="cccccsscccssssccccc"
     inkscape:connector-curvature="0"
     id="path262"
     d="m 13.650989,45.288347 c 0,0 1.166671,-0.382033 2.010282,-0.654652 0,-0.07116 -0.233948,-0.43611 -0.519882,-0.811007 -0.408409,-0.53543 -0.463338,-0.716545 -0.25618,-0.844553 0.145035,-0.08966 0.343429,-0.113731 0.440872,-0.0535 0.305448,0.188784 -0.200145,-0.615089 -0.633547,-1.007316 -0.500102,-0.452616 -0.528298,-0.707467 -0.07827,-0.707467 0.252674,0 0.174575,-0.165339 -0.318299,-0.673875 -0.440158,-0.293929 -0.967627,-1.408622 -1.229314,-1.631774 -0.328642,0.587467 -0.63081,1.258915 -1.071946,1.728666 -0.456917,0.476887 -0.476374,0.548536 -0.165284,0.608439 0.302024,0.05815 0.259422,0.174027 -0.297085,0.807853 -0.59511,0.677759 -0.614799,0.739942 -0.234416,0.739942 0.544545,0 0.52415,0.278346 -0.07825,1.068141 -0.27143,0.35587 -0.493511,0.700428 -0.493511,0.76567 0.502913,0.252571 1.840179,0.683195 1.840179,0.683195 l -0.01578,0.828679 1.093206,0.0059 z"
     style="fill:#ffffff;stroke-width:0.19740421" />
</g>
<g
   id="g2385"
   transform="matrix(1.1278445,0,0,1.1278445,-8.490559,-5.638761)">
  <g
     style="fill:#cf4a80;fill-opacity:1"
     id="g172"
     transform="matrix(-0.47082615,0.118176,-0.118176,-0.47082615,66.573302,45.529879)"
     y="90"
     x="58">
    <path
       style="fill:#cf4a80;fill-opacity:1"
       inkscape:connector-curvature="0"
       id="path168"
       d="m 32,2 c 0,0 -16,46 0,62 0,0 16,-16 0,-62 z" />
    <circle
       style="fill:#cf4a80;fill-opacity:1"
       id="circle170"
       r="10"
       cy="80"
       cx="32" />
  </g>
  <g
     style="fill:#ffffff"
     id="g4387"
     transform="matrix(0.19512897,0,0,0.19512897,-30.419393,-3.5065971)">
    <path
       style="fill:#ffffff"
       d="m 374.39301,91.418213 c 0.33385,-0.869984 0.60699,-2.804984 0.60699,-4.3 0,-1.495017 0.47441,-3.192627 1.05425,-3.772466 0.57984,-0.579839 0.91734,-3.707339 0.75,-6.95 L 376.5,70.5 h -5.5 -5.5 l -0.30425,5.895747 c -0.16734,3.242661 0.17016,6.370161 0.75,6.95 C 366.52559,83.925586 367,86.035 367,88.033333 c 0,1.998334 0.3,3.933334 0.66667,4.3 1.31098,1.310988 6.12334,0.656265 6.72634,-0.91512 z"
       id="path138"
       inkscape:connector-curvature="0" />
    <path
       style="fill:#ffffff"
       d="m 360.78527,87.5 c 0.1569,-1.65 0.74947,-3.926605 1.31682,-5.059122 0.56736,-1.132516 0.88899,-4.057516 0.71473,-6.5 L 362.5,71.5 357.75,71.195209 353,70.890418 v 6.054791 C 353,80.31507 353.44344,83 354,83 c 0.55,0 1,1.82989 1,4.066422 0,3.846139 0.14897,4.049282 2.75,3.75 2.23957,-0.25769 2.80295,-0.87326 3.03527,-3.316422 z"
       id="path136-3"
       inkscape:connector-curvature="0" />
    <path
       style="fill:#ffffff"
       d="m 387,87 c 0,-2.2 0.45,-4 1,-4 0.55656,0 1,-2.68493 1,-6.054791 v -6.054791 l -4.75,0.304791 -4.75,0.304791 -0.31049,4.889511 c -0.17077,2.689231 0.16673,5.366731 0.75,5.95 C 380.52278,82.92278 381,84.81 381,86.533333 381,90.280713 381.59046,91 384.66667,91 386.72222,91 387,90.52381 387,87 Z"
       id="path134"
       inkscape:connector-curvature="0" />
    <path
       style="fill:#ffffff"
       d="m 360.42976,68.322459 c 0.83169,-2.167358 -1.58486,-4.583908 -3.75222,-3.752214 -1.67179,0.641527 -2.27766,3.496298 -1.01087,4.763088 1.26679,1.26679 4.12156,0.66092 4.76309,-1.010874 z"
       id="path132"
       inkscape:connector-curvature="0" />
    <path
       style="fill:#ffffff"
       d="m 386.80287,67.377278 c 0.39816,-2.790533 -2.79721,-4.105509 -4.45781,-1.834505 -1.66082,2.271314 -0.53722,4.626708 2.03222,4.260099 1.27506,-0.181927 2.24367,-1.150534 2.42559,-2.425594 z"
       id="path130"
       inkscape:connector-curvature="0" />
    <path
       style="fill:#ffffff"
       d="m 373.81642,65.75 c 0.27333,-2.375479 -0.0374,-2.75 -2.28138,-2.75 -2.76645,0 -4.13657,1.990044 -3.1465,4.570137 1.0364,2.700817 5.06305,1.350555 5.42788,-1.820137 z"
       id="path128"
       inkscape:connector-curvature="0" />
  </g>
</g>
<g
   id="g2395"
   transform="matrix(1.1278445,0,0,1.1278445,-8.490559,-5.638761)">
  <g
     transform="matrix(0.48543056,0,0,0.48543056,8.0927649,6.341332)"
     style="fill:#2593c9;fill-opacity:1"
     id="g242">
    <path
       style="fill:#2593c9;fill-opacity:1"
       inkscape:connector-curvature="0"
       id="path174"
       d="m 90.088317,86.629725 c 0,0 30.164533,-38.237429 20.277283,-58.590373 0,0 -20.352943,9.887249 -20.277283,58.590373 z" />
    <circle
       style="fill:#2593c9;fill-opacity:1"
       id="circle176"
       r="10"
       cy="25.598042"
       cx="-113.46651"
       transform="rotate(-160.91)" />
  </g>
  <g
     transform="matrix(0.45401967,0,0,0.45401967,11.747088,6.90516)"
     id="g290">
    <path
       style="fill:#ffffff;stroke-width:0.45394185"
       d="m 122.37148,18.192776 0.0824,-5.499272 c 0,0 -1.84442,-0.460267 -1.84442,0.60341 0,0.645666 -0.30651,0.896404 -1.09577,0.896404 -0.70911,0 -1.18061,-0.316308 -1.33622,-0.896404 -0.20764,-0.774041 -0.62711,-0.896404 -3.07301,-0.896404 -2.62334,0 -2.811,0.06621 -2.54072,0.896404 0.24915,0.765288 0.0825,0.896404 -1.13857,0.896404 -1.09681,0 -1.38452,-0.87945 -1.28094,-1.46842 0.0777,-0.442012 -1.37467,-0.268569 -1.37467,-0.268569 0,0 -0.11378,3.251873 -0.11378,5.770805 4.57192,0.0046 9.14382,0.0012 13.71561,-0.03436 z"
       id="path124"
       inkscape:connector-curvature="0"
       sodipodi:nodetypes="ccsssssssccc" />
    <path
       style="fill:#ffffff;stroke-width:0.45394185"
       d="m 111.87416,12.62461 c 0,-0.616277 -0.20689,-1.120504 -0.45975,-1.120504 -0.51363,0 -0.8537,1.378217 -0.37677,1.843168 0.50681,0.494072 0.83652,0.450755 0.83652,-0.722664 z"
       id="path122"
       inkscape:connector-curvature="0"
       sodipodi:nodetypes="ssss" />
    <path
       inkscape:connector-curvature="0"
       style="fill:#ffffff;stroke-width:0.45394185"
       d="m 119.8231,12.400064 c -0.13219,-0.492776 -0.4231,-0.895957 -0.64647,-0.895957 -0.46604,0 -0.55318,1.500066 -0.11217,1.930023 0.53302,0.519632 1.00339,-0.121527 0.7586,-1.034066 z"
       id="path120" />
    <path
       style="fill:#ffffff;stroke-width:0.45394185"
       d="m 115.07898,5.6590993 c -1.65134,0.052577 -3.20482,0.7449133 -3.20482,2.0291629 0,0.4376485 -0.50167,0.5454592 -1.83902,0.3956783 -1.38618,-0.1065304 -1.25292,2.3078145 -1.27088,3.8287525 0,0 1.37586,0.199288 1.52141,-0.170478 0.14555,-0.369768 0.70588,-1.134511 1.19248,-1.134511 0.48662,0 1.00384,0.666699 1.14939,1.036465 0.19381,0.49236 0.98986,0.30814 2.97405,0.30814 2.10179,0 2.63731,0.339464 2.63731,-0.182083 0,-0.41832 0.50605,-1.162522 1.22122,-1.162522 0.71518,0 1.14939,0.25398 1.14939,0.672301 0,0.422353 0.43676,0.672304 1.17543,0.672304 1.09899,0 0.56718,-0.144272 0.60776,-1.934571 -0.14046,-1.892659 0.27439,-1.8753861 -1.5165,-1.8803984 -1.1947,-0.00335 -1.87145,-0.2300214 -2.00693,-0.6723028 -0.38964,-1.2718453 -2.13896,-1.8585098 -3.79029,-1.8059375 z m 0.51183,1.3629879 c 1.66397,0 2.28248,0.1613648 2.14792,0.5602532 -0.20567,0.6097406 -3.62445,1.0265551 -4.15755,0.5068529 -0.77256,-0.7531469 -0.1811,-1.0671061 2.00963,-1.0671061 z"
       id="path118"
       inkscape:connector-curvature="0"
       sodipodi:nodetypes="sscccscssssscccssscs" />
  </g>
</g>
<g
   id="g2401"
   transform="matrix(1.1278445,0,0,1.1278445,-8.490559,-5.638761)">
  <g
     style="fill:#49b1ff;fill-opacity:1"
     id="g190"
     transform="matrix(-0.29705498,-0.38392859,0.38392859,-0.29705498,61.012622,61.597228)"
     y="90"
     x="58">
    <path
       style="fill:#49b1ff;fill-opacity:1"
       inkscape:connector-curvature="0"
       id="path186"
       d="m 32,2 c 0,0 -16,46 0,62 0,0 16,-16 0,-62 z" />
    <circle
       style="fill:#49b1ff;fill-opacity:1"
       id="circle188"
       r="10"
       cy="80"
       cx="32" />
  </g>
  <path
     sodipodi:nodetypes="cccccsscsacczaacsscsscccccccccc"
     inkscape:connector-curvature="0"
     id="path190"
     d="m 84.336264,22.39952 c -2.03756,0.633438 -3.591156,1.151685 -5.652838,2.291766 0.376729,0.961299 0.943991,1.567311 1.601832,2.453706 1.951532,-0.895182 3.903073,-1.790365 5.854606,-2.685547 -0.553251,-0.586935 -1.133766,-1.98444 -1.8036,-2.059925 z m -2.066148,1.174161 c 0.527025,0 1.221038,0.530962 1.221038,0.934161 0,0.802272 -1.239843,1.24945 -1.957248,0.706011 -0.66398,-0.503003 -0.153568,-1.640172 0.73621,-1.640172 z m 0.03921,0.442954 c -0.06765,-0.104848 -0.289358,-0.0048 -0.367376,0.07399 -0.338919,0.808727 0.955915,0.545478 0.16915,0.9329 -0.132257,0.197911 0.549858,0.09447 0.580286,-0.21422 0.03044,-0.308685 -0.582081,-0.207521 -0.621246,-0.462324 -0.02063,-0.13427 0.312902,-0.216113 0.239186,-0.330335 z m 3.631789,0.985425 c -0.08842,-0.08826 -5.212559,2.217544 -5.446222,2.450744 -0.05643,0.05631 -0.489745,-0.411645 -0.962965,-1.039841 -0.473225,-0.628195 -0.901624,-1.101054 -0.952147,-1.050617 -0.11129,0.111024 1.564493,2.403415 1.756974,2.403415 0.01383,0 1.257365,-0.555575 2.763208,-1.23445 2.832197,-1.276827 3.002448,-1.368283 2.841152,-1.529251 z m -0.1682,0.679215 c -0.152284,0.0063 -1.436758,0.55606 -2.854581,1.221439 l -2.577846,1.209935 -0.477373,-0.520283 c -0.262568,-0.286259 -0.66057,-0.771592 -0.884645,-1.078579 -0.224087,-0.306938 -0.453057,-0.515333 -0.508706,-0.462955 0.434441,0.942803 0.977401,1.55333 1.639494,2.448124 1.276383,-0.56276 2.611884,-1.165082 3.763833,-1.690027 1.893367,-0.863241 2.371853,-1.147509 1.899824,-1.127654 z"
     style="fill:#ffffff;stroke-width:0.19075061" />
</g>
<g
   id="g2407"
   transform="matrix(1.1278445,0,0,1.1278445,-8.490559,-5.638761)">
  <g
     style="fill:#55b2ae;fill-opacity:1"
     id="g196"
     transform="matrix(-0.03850874,-0.48390071,0.48390071,-0.03850874,52.739143,64.796335)"
     y="90"
     x="58">
    <path
       style="fill:#55b2ae;fill-opacity:1"
       inkscape:connector-curvature="0"
       id="path192"
       d="m 32,2 c 0,0 -16,46 0,62 0,0 16,-16 0,-62 z" />
    <circle
       style="fill:#55b2ae;fill-opacity:1"
       id="circle194"
       r="10"
       cy="80"
       cx="32" />
  </g>
  <path
     sodipodi:nodetypes="ccccccccccccccccc"
     inkscape:connector-curvature="0"
     id="path258"
     d="m 90.301502,42.74877 c -0.293684,0 -3.353246,2.661808 -3.353246,2.661808 0,0 0.347503,0.373395 0.65108,0.373395 0.122507,0.926346 0.234826,2.033468 0.206861,3.374713 0.06091,0.06091 1.222825,0.102381 2.581991,0.09184 l 2.47126,-0.01942 c 0.132684,-0.911153 -0.382699,-3.328259 0.180255,-3.575147 l 0.872972,-0.194853 -0.691423,-0.492275 c -1.022327,-0.396355 -0.359877,-2.206817 -1.130904,-2.220165 -0.551113,0.09539 -0.38302,0.582953 -0.625328,0.878969 -0.467143,-0.218735 -0.712008,-0.643196 -1.163518,-0.878969 z m -1.067824,3.73563 c 0.634539,-0.242763 1.17196,0 1.757952,0 v 2.417202 c -0.469453,-0.08743 -1.171967,0.184512 -1.757952,0 z"
     style="fill:#ffffff;stroke-width:0.21974379" />
</g>
<g
   id="g2413"
   transform="matrix(1.1278445,0,0,1.1278445,-8.490559,-5.638761)">
  <g
     style="fill:#923953;fill-opacity:1"
     id="g202"
     transform="matrix(0.22789583,-0.42860974,0.42860974,0.22789583,44.214185,63.027005)"
     y="90"
     x="58">
    <path
       style="fill:#923953;fill-opacity:1"
       inkscape:connector-curvature="0"
       id="path198"
       d="m 32,2 c 0,0 -16,46 0,62 0,0 16,-16 0,-62 z" />
    <circle
       style="fill:#923953;fill-opacity:1"
       id="circle200"
       r="10"
       cy="80"
       cx="32" />
  </g>
  <path
     sodipodi:nodetypes="ssssccccccccscccccccccccccccccsss"
     inkscape:connector-curvature="0"
     id="path833"
     d="m 87.407251,70.13817 c 0,0.371597 -0.127976,0.403246 -1.631619,0.403246 -1.503641,0 -1.631613,-0.03156 -1.631613,-0.403246 0,-0.326451 0.127976,-0.403296 0.671848,-0.403296 h 0.671832 v -2.31871 -2.318704 h -0.815804 c -1.060825,0.0048 -1.181241,0.100674 -1.75958,1.411823 -0.446832,1.012998 -0.459563,1.114842 -0.155392,1.241539 0.482994,0.201164 1.248817,0.188249 1.572033,-0.02622 0.244041,-0.162182 0.237747,-0.281644 -0.04796,-0.911104 -0.180892,-0.39844 -0.691805,-1.191782 -0.683473,-1.271149 0.0089,-0.07941 0.586883,0.700964 0.833812,1.242413 0.24691,0.541497 0.405927,1.102219 0.353377,1.246102 -0.133284,0.364849 -1.055593,0.669404 -1.659732,0.548148 -0.903963,-0.181555 -1.019633,-0.559654 -0.529898,-1.732405 0.92025,-2.222204 0.570824,-2.179341 3.284433,-2.256089 2.921914,0 2.884243,-0.164025 1.143867,3.02763 0,0.16767 1.09233,0.300674 1.567834,0.190969 0.455177,-0.104995 0.430673,-0.187957 0.34549,-0.543051 l -0.713482,-1.827744 0.935247,1.812648 c 0.119693,0.243394 0.165523,0.58499 0.101954,0.759117 -0.166632,0.456108 -1.052037,0.759067 -1.628516,0.557227 -0.853066,-0.298687 -0.919661,-0.684362 -0.354575,-2.052987 0.333061,-0.812708 0.985087,-1.471241 -0.349902,-1.41974 h -0.863778 v 2.318709 2.318759 h 0.671832 c 0.543875,0 0.671838,0.0768 0.671838,0.403247 z"
     style="fill:#ffffff;stroke-width:0.19673212" />
</g>
<g
   id="g2421"
   transform="matrix(1.1278445,0,0,1.1278445,-8.490559,-5.638761)">
  <g
     style="fill:#666666"
     id="g208"
     transform="matrix(0.41826112,-0.24637463,0.24637463,0.41826112,38.122505,57.195494)"
     y="90"
     x="58">
    <path
       style="fill:#666666"
       inkscape:connector-curvature="0"
       id="path204"
       d="m 32,2 c 0,0 -16,46 0,62 0,0 16,-16 0,-62 z" />
    <circle
       style="fill:#666666"
       id="circle206"
       r="10"
       cy="80"
       cx="32" />
  </g>
  <g
     style="fill:#ffffff"
     id="g979"
     transform="matrix(0.07282967,0,0,0.07282967,203.93469,-23.408037)">
    <path
       style="fill:#ffffff;stroke-width:2.51280284"
       d="m -1805.4832,1490.7893 c 0,-13.3064 -0.8261,-15.8016 -7.4325,-22.4499 -11.2332,-11.3044 -8.9645,-15.2269 8.3201,-14.3859 11.0478,0.5376 14.1117,-0.09 13.2883,-2.7203 -0.5886,-1.8804 -5.1222,-3.7785 -10.0748,-4.2182 -8.6079,-0.764 -9.0045,-1.218 -9.0013,-10.3014 v -9.502 l -13.3648,0.8746 c -11.8227,0.7738 -14.0862,1.8683 -19.6176,9.4858 -8.903,12.2607 -7.7402,16.6301 1.8322,6.8845 7.3937,-7.5274 16.456,-11.005 16.4167,-6.2997 -0.01,1.0623 -2.2083,5.4082 -4.8874,9.6575 -3.2998,5.2336 -4.8765,12.0878 -4.8874,21.2466 l -0.015,13.5205 c -5.2167,0.1601 -24.3062,-1.2163 -24.5178,3.8631 6.0779,6.7787 18.6596,3.863 29.4214,3.863 v -11.5891 c 0,-6.3739 0.8969,-11.589 1.993,-11.589 1.0962,0 4.9578,3.2504 8.5813,7.2231 5.2379,5.7427 6.5881,9.7014 6.5881,19.3151 0,9.0315 0.9309,12.0919 3.6777,12.0919 2.8473,0 3.6777,-3.3802 3.6777,-14.9702 z"
       id="path893"
       inkscape:connector-curvature="0"
       sodipodi:nodetypes="ccccccccccccccccsscsscc" />
    <path
       style="fill:#ffffff;stroke-width:2.51280284"
       d="m -1797.3069,1420.3453 c 3.1552,-5.2632 -1.6422,-12.4488 -8.3113,-12.4488 -5.6248,0 -8.593,9.324 -4.5837,14.3984 3.7096,4.6951 9.43,3.8302 12.895,-1.9496 z"
       id="path891"
       inkscape:connector-curvature="0"
       sodipodi:nodetypes="cscc" />
  </g>
</g>
<g
   id="g2342"
   transform="matrix(1.1278445,0,0,1.1278445,-8.49056,-5.638761)">
  <g
     style="fill:#e38200;fill-opacity:1"
     id="g142"
     transform="matrix(0.48543056,0,0,0.48543056,35.973085,49.311499)"
     y="90"
     x="58">
    <path
       style="fill:#e38200;fill-opacity:1"
       inkscape:connector-curvature="0"
       id="path136"
       d="m 32,2 c 0,0 -16,46 0,62 0,0 16,-16 0,-62 z" />
    <circle
       style="fill:#e38200;fill-opacity:1"
       id="circle138"
       r="10"
       cy="80"
       cx="32" />
  </g>
  <path
     sodipodi:nodetypes="scscs"
     inkscape:connector-curvature="0"
     id="path901"
     d="m 53.978588,86.276356 c -1.584138,-1.712212 -2.453414,0.146163 -2.453414,0.146163 0,0 -1.200206,-1.977644 -2.773982,-0.426502 -1.484235,1.462946 1.199261,4.195243 2.843877,5.567793 1.796089,-1.48061 3.696447,-3.868346 2.383519,-5.287454 z"
     style="fill:#ffffff;stroke-width:0.21093515" />
</g>
<g
   id="g2348"
   transform="matrix(1.1278445,0,0,1.1278445,-8.490559,-5.638761)">
  <g
     style="fill:#88238c;fill-opacity:1"
     id="g148"
     transform="matrix(0.40628372,0.26566211,-0.26566211,0.40628372,38.50578,40.810335)"
     y="90"
     x="58">
    <path
       style="fill:#88238c;fill-opacity:1"
       inkscape:connector-curvature="0"
       id="path144"
       d="m 32,2 c 0,0 -16,46 0,62 0,0 16,-16 0,-62 z" />
    <circle
       style="fill:#88238c;fill-opacity:1"
       id="circle146"
       r="10"
       cy="80"
       cx="32" />
  </g>
  <path
     sodipodi:nodetypes="ccccccccccccc"
     inkscape:connector-curvature="0"
     id="path897"
     d="m 31.184019,83.006836 c 0.623676,-0.03447 1.247345,-0.06932 1.871019,-0.103981 -0.03852,-0.644356 -0.07704,-1.288718 -0.115558,-1.933128 -0.585151,-0.03544 -1.170308,-0.07126 -1.755461,-0.106889 -0.03428,-0.62533 -0.06854,-1.250611 -0.102821,-1.875946 -0.617743,0 -1.235492,0 -1.853237,0 0,0.65509 0,1.310181 0,1.965316 h -1.871019 v 1.965312 h 1.871019 v 2.143954 h 1.854043 c 0.034,-0.684895 0.06801,-1.369737 0.10202,-2.054632 z"
     style="fill:#ffffff;stroke-width:0.17432593" />
</g>
<g
   id="g2359"
   transform="matrix(1.1278445,0,0,1.1278445,-8.490559,-5.638761)">
  <g
     style="fill:#d4b000;fill-opacity:1"
     id="g154"
     transform="matrix(0.19465215,0.44469469,-0.44469469,0.19465215,45.277998,35.081272)"
     y="90"
     x="58">
    <path
       style="fill:#d4b000;fill-opacity:1"
       inkscape:connector-curvature="0"
       id="path150"
       d="m 32,2 c 0,0 -16,46 0,62 0,0 16,-16 0,-62 z" />
    <circle
       style="fill:#d4b000;fill-opacity:1"
       id="circle152"
       r="10"
       cy="80"
       cx="32" />
  </g>
  <g
     style="fill:#ffffff"
     id="g1037"
     transform="matrix(0.07664535,0,0,0.07664535,214.21379,-28.954468)">
    <path
       style="fill:#ffffff;stroke-width:2.51280284"
       d="m -2583.7784,1226.2403 c 6.9359,4.9015 38.3051,40.0275 43.4935,35.1103 0.9415,-10.7748 -28.4652,-33.5966 -38.7355,-41.9314 l 7.3553,-6.2909 c 5.9452,-5.5709 32.0277,-18.8142 29.5884,-23.8521 -14.877,-3.4554 -30.6823,20.4423 -43.8514,22.8943 -12.4289,-4.2074 -32.2134,-23.9001 -43.4963,-25.7534 -4.3373,0 -4.164,7.578 0.2067,9.0351 13.0936,6.8644 22.3549,13.9441 34.7804,22.6597 -5.091,8.2986 -42.4556,33.1261 -38.8206,42.4831 12.706,3.1922 40.8812,-40.6868 49.4795,-34.3547 z"
       id="path845"
       inkscape:connector-curvature="0"
       sodipodi:nodetypes="ccccccccccc" />
    <path
       style="fill:#ffffff;stroke-width:2.51280284"
       d="m -2560.7031,1258.6272 c 6.7729,-4.4991 -0.1069,-6.3045 -25.1525,-6.6005 -24.6242,-0.2911 -33.8994,2.7333 -24.1284,6.7721 12.6876,0.8026 43.8896,-0.4994 49.2809,-0.1717 z"
       id="path843"
       inkscape:connector-curvature="0"
       sodipodi:nodetypes="ccccc" />
    <path
       style="fill:#ffffff;stroke-width:2.51280284"
       d="m -2550.8249,1220.9696 c 0,-12.4118 -0.8212,-16.6704 -3.0648,-15.8946 -3.1649,1.0944 -5.6155,22.9321 -3.2883,29.3025 3.2457,8.8843 6.3531,2.3263 6.3531,-13.4079 z"
       id="path841"
       inkscape:connector-curvature="0" />
    <path
       style="fill:#ffffff;stroke-width:2.51280284"
       d="m -2612.7751,1218.565 c -0.3868,-9.1257 -1.397,-11.5452 -4.8204,-11.5452 -3.6186,0 -4.3311,2.345 -4.3311,14.255 0,13.375 0.2976,14.0877 4.8204,11.5451 3.827,-2.1513 4.7196,-5.0892 4.3311,-14.2549 z"
       id="path839"
       inkscape:connector-curvature="0" />
    <path
       style="fill:#ffffff;stroke-width:2.51280284"
       d="m -2562.0609,1191.4434 c 3.8765,-3.934 -4.1572,-5.2717 -26.9607,-4.4892 -22.0198,0.7556 -28.2876,4.0023 -12.5779,6.8954 11.5228,-1.4962 36.6617,0.514 39.5386,-2.4062 z"
       id="path837"
       inkscape:connector-curvature="0"
       sodipodi:nodetypes="cscc" />
  </g>
</g>
<path
   style="fill:none;stroke:none;stroke-width:10.172719px;stroke-linecap:butt;stroke-linejoin:miter;stroke-opacity:1"
   d="m 49.642883,49.994081 13.433488,50.529349 -29.31439,-0.31371 z"
   id="path1069"
   inkscape:connector-curvature="0" />
<path
   style="fill:none;stroke:none;stroke-width:10.14433002px;stroke-linecap:butt;stroke-linejoin:miter;stroke-opacity:1"
   d="M 49.601173,51.071923 34.039543,100.20972 9.0696035,84.670025 Z"
   id="path1069-3"
   inkscape:connector-curvature="0" />
<path
   style="fill:none;stroke:none;stroke-width:10.30377102px;stroke-linecap:butt;stroke-linejoin:miter;stroke-opacity:1"
   d="M 50.13558,49.931502 9.3061452,83.437791 -2.2215677,55.784336 Z"
   id="path1069-6"
   inkscape:connector-curvature="0" />
<path
   style="fill:none;stroke:none;stroke-width:10.14433098px;stroke-linecap:butt;stroke-linejoin:miter;stroke-opacity:1"
   d="M 49.10315,51.044988 -2.2215677,55.784336 2.4031383,26.739709 Z"
   id="path1069-3-7"
   inkscape:connector-curvature="0" />
<path
   style="fill:none;stroke:none;stroke-width:10.30377293px;stroke-linecap:butt;stroke-linejoin:miter;stroke-opacity:1"
   d="M 49.012788,51.584266 2.4031383,26.739709 23.515223,5.4821975 Z"
   id="path1069-6-5"
   inkscape:connector-curvature="0" />
<path
   style="fill:none;stroke:none;stroke-width:10.14433098px;stroke-linecap:butt;stroke-linejoin:miter;stroke-opacity:1"
   d="M 48.598081,50.41603 21.941436,6.3012958 50.093789,-2.20911 Z"
   id="path1069-3-7-3"
   inkscape:connector-curvature="0" />
<path
   style="fill:none;stroke:none;stroke-width:10.30377293px;stroke-linecap:butt;stroke-linejoin:miter;stroke-opacity:1"
   d="m 48.65705,50.946712 1.541446,-52.7952445 28.425579,9.46501 z"
   id="path1069-6-5-5"
   inkscape:connector-curvature="0" />
<path
   style="fill:none;stroke:none;stroke-width:10.14433098px;stroke-linecap:butt;stroke-linejoin:miter;stroke-opacity:1"
   d="M 49.752188,50.314306 78.624075,7.6164775 98.154708,29.605929 Z"
   id="path1069-3-7-3-6"
   inkscape:connector-curvature="0" />
<path
   style="fill:none;stroke:none;stroke-width:10.30377293px;stroke-linecap:butt;stroke-linejoin:miter;stroke-opacity:1"
   d="M 49.642883,49.994081 97.833735,28.375663 101.70116,58.085001 Z"
   id="path1069-6-5-5-2"
   inkscape:connector-curvature="0" />
<path
   style="fill:none;stroke:none;stroke-width:10.14433098px;stroke-linecap:butt;stroke-linejoin:miter;stroke-opacity:1"
   d="M 50.700312,50.628237 101.70116,58.085001 90.379387,85.229017 Z"
   id="path1069-3-7-3-6-9"
   inkscape:connector-curvature="0" />
<path
   style="fill:none;stroke:none;stroke-width:10.30377293px;stroke-linecap:butt;stroke-linejoin:miter;stroke-opacity:1"
   d="M 50.212175,50.597743 89.554472,85.838315 63.983087,101.4494 Z"
   id="path1069-6-5-5-2-1"
   inkscape:connector-curvature="0" />
</svg>
